<?xml version="1.0" encoding="utf-8"?>
<svg xmlns="http://www.w3.org/2000/svg" viewBox="4.866 1.313 259.298 51.442">
  <path d="M 7.534 31.955 L 7.534 3.635 L 8.974 3.635 L 8.974 31.955 L 7.534 31.955 Z M 10.414 31.955 L 10.414 3.635 L 14.734 3.635 L 14.734 31.955 L 10.414 31.955 Z M 16.174 31.955 L 16.174 3.635 L 20.494 3.635 L 20.494 31.955 L 16.174 31.955 Z M 21.934 31.955 L 21.934 3.635 L 23.374 3.635 L 23.374 31.955 L 21.934 31.955 Z M 27.694 31.955 L 27.694 3.635 L 29.134 3.635 L 29.134 31.955 L 27.694 31.955 Z M 15.646 36.131 L 19.198 36.131 C 20.382 36.131 21.262 36.435 21.838 37.043 C 22.446 37.619 22.75 38.371 22.75 39.299 C 22.75 40.195 22.462 40.931 21.886 41.507 C 21.31 42.083 20.446 42.371 19.294 42.371 L 16.942 42.371 L 16.942 47.267 L 15.646 47.267 L 15.646 36.131 Z M 19.15 41.267 C 19.95 41.267 20.526 41.091 20.878 40.739 C 21.262 40.419 21.454 39.955 21.454 39.347 C 21.454 38.739 21.262 38.259 20.878 37.907 C 20.494 37.523 19.934 37.331 19.198 37.331 L 16.942 37.331 L 16.942 41.267 L 19.15 41.267 Z M 30.596 31.955 L 30.596 3.635 L 34.916 3.635 L 34.916 31.955 L 30.596 31.955 Z M 36.356 31.955 L 36.356 3.635 L 37.796 3.635 L 37.796 31.955 L 36.356 31.955 Z M 39.236 31.955 L 39.236 3.635 L 40.676 3.635 L 40.676 31.955 L 39.236 31.955 Z M 44.996 31.955 L 44.996 3.635 L 49.316 3.635 L 49.316 31.955 L 44.996 31.955 Z M 50.756 31.955 L 50.756 3.635 L 52.196 3.635 L 52.196 31.955 L 50.756 31.955 Z M 38.564 36.131 L 40.004 36.131 L 40.004 36.275 C 39.94 36.339 39.892 36.419 39.86 36.515 C 39.86 36.579 39.86 36.723 39.86 36.947 L 39.86 40.883 L 44.18 40.883 L 44.18 36.131 L 45.668 36.131 L 45.668 36.275 C 45.604 36.339 45.556 36.419 45.524 36.515 C 45.524 36.579 45.524 36.723 45.524 36.947 L 45.524 47.267 L 44.18 47.267 L 44.18 41.987 L 39.86 41.987 L 39.86 47.267 L 38.564 47.267 L 38.564 36.131 Z M 53.659 31.955 L 53.659 3.635 L 57.979 3.635 L 57.979 31.955 L 53.659 31.955 Z M 59.419 31.955 L 59.419 3.635 L 60.859 3.635 L 60.859 31.955 L 59.419 31.955 Z M 62.299 31.955 L 62.299 3.635 L 63.739 3.635 L 63.739 31.955 L 62.299 31.955 Z M 68.059 31.955 L 68.059 3.635 L 69.499 3.635 L 69.499 31.955 L 68.059 31.955 Z M 70.939 31.955 L 70.939 3.635 L 75.259 3.635 L 75.259 31.955 L 70.939 31.955 Z M 66.955 44.003 L 63.355 44.003 L 62.251 47.267 L 61.003 47.267 L 65.083 35.939 L 65.227 35.939 L 69.355 47.267 L 68.059 47.267 L 66.955 44.003 Z M 66.619 43.043 L 65.179 38.819 L 63.691 43.043 L 66.619 43.043 Z M 76.721 31.955 L 76.721 3.635 L 81.041 3.635 L 81.041 31.955 L 76.721 31.955 Z M 82.481 31.955 L 82.481 3.635 L 83.921 3.635 L 83.921 31.955 L 82.481 31.955 Z M 85.361 31.955 L 85.361 3.635 L 86.801 3.635 L 86.801 31.955 L 85.361 31.955 Z M 88.241 31.955 L 88.241 3.635 L 92.561 3.635 L 92.561 31.955 L 88.241 31.955 Z M 96.881 31.955 L 96.881 3.635 L 98.321 3.635 L 98.321 31.955 L 96.881 31.955 Z M 84.785 36.131 L 88.049 36.131 C 89.329 36.131 90.257 36.419 90.833 36.995 C 91.441 37.539 91.745 38.323 91.745 39.347 C 91.745 39.987 91.537 40.595 91.121 41.171 C 90.705 41.747 90.161 42.131 89.489 42.323 L 92.081 47.267 L 90.689 47.267 L 88.193 42.371 L 86.033 42.371 L 86.033 47.267 L 84.785 47.267 L 84.785 36.131 Z M 88.193 41.267 C 88.961 41.267 89.537 41.091 89.921 40.739 C 90.273 40.419 90.449 39.955 90.449 39.347 C 90.449 38.739 90.273 38.243 89.921 37.859 C 89.537 37.507 88.961 37.331 88.193 37.331 L 86.033 37.331 L 86.033 41.267 L 88.193 41.267 Z M 99.784 31.955 L 99.784 3.635 L 104.104 3.635 L 104.104 31.955 L 99.784 31.955 Z M 105.544 31.955 L 105.544 3.635 L 109.863 3.635 L 109.863 31.955 L 105.544 31.955 Z M 111.303 31.955 L 111.303 3.635 L 112.743 3.635 L 112.743 31.955 L 111.303 31.955 Z M 114.183 31.955 L 114.183 3.635 L 115.623 3.635 L 115.623 31.955 L 114.183 31.955 Z M 119.943 31.955 L 119.943 3.635 L 121.383 3.635 L 121.383 31.955 L 119.943 31.955 Z M 107.559 36.131 L 108.567 36.131 L 111.303 41.603 L 114.087 36.131 L 115.047 36.131 L 115.047 47.267 L 113.847 47.267 L 113.847 38.867 L 111.447 43.379 L 110.967 43.379 L 108.711 38.915 L 108.711 47.267 L 107.559 47.267 L 107.559 36.131 Z M 122.846 31.955 L 122.846 3.635 L 127.166 3.635 L 127.166 31.955 L 122.846 31.955 Z M 128.606 31.955 L 128.606 3.635 L 130.046 3.635 L 130.046 31.955 L 128.606 31.955 Z M 131.486 31.955 L 131.486 3.635 L 132.926 3.635 L 132.926 31.955 L 131.486 31.955 Z M 137.246 31.955 L 137.246 3.635 L 138.686 3.635 L 138.686 31.955 L 137.246 31.955 Z M 140.126 31.955 L 140.126 3.635 L 144.446 3.635 L 144.446 31.955 L 140.126 31.955 Z M 136.142 44.003 L 132.542 44.003 L 131.438 47.267 L 130.19 47.267 L 134.27 35.939 L 134.414 35.939 L 138.542 47.267 L 137.246 47.267 L 136.142 44.003 Z M 135.806 43.043 L 134.366 38.819 L 132.878 43.043 L 135.806 43.043 Z M 145.908 31.955 L 145.908 3.635 L 147.348 3.635 L 147.348 31.955 L 145.908 31.955 Z M 148.788 31.955 L 148.788 3.635 L 153.108 3.635 L 153.108 31.955 L 148.788 31.955 Z M 154.548 31.955 L 154.548 3.635 L 155.988 3.635 L 155.988 31.955 L 154.548 31.955 Z M 157.428 31.955 L 157.428 3.635 L 161.748 3.635 L 161.748 31.955 L 157.428 31.955 Z M 166.068 31.955 L 166.068 3.635 L 167.508 3.635 L 167.508 31.955 L 166.068 31.955 Z M 157.38 47.459 C 155.94 47.459 154.772 46.979 153.876 46.019 L 154.548 44.915 L 154.596 44.771 L 154.74 44.819 C 154.74 44.851 154.756 44.915 154.788 45.011 C 154.788 45.075 154.82 45.155 154.884 45.251 C 154.916 45.315 154.98 45.379 155.076 45.443 C 155.748 46.019 156.58 46.307 157.572 46.307 C 158.212 46.307 158.756 46.131 159.204 45.779 C 159.652 45.395 159.876 44.947 159.876 44.435 C 159.876 44.083 159.796 43.779 159.636 43.523 C 159.508 43.299 159.268 43.075 158.916 42.851 C 158.564 42.627 158.02 42.355 157.284 42.035 C 156.196 41.619 155.412 41.139 154.932 40.595 C 154.484 40.051 154.26 39.443 154.26 38.771 C 154.26 37.939 154.564 37.267 155.172 36.755 C 155.78 36.243 156.596 35.987 157.62 35.987 C 158.228 35.987 158.804 36.115 159.348 36.371 C 159.86 36.627 160.324 36.963 160.74 37.379 L 159.924 38.483 L 159.828 38.387 C 159.828 38.355 159.812 38.307 159.78 38.243 C 159.78 38.147 159.748 38.067 159.684 38.003 C 159.652 37.907 159.588 37.827 159.492 37.763 C 159.236 37.507 158.932 37.315 158.58 37.187 C 158.26 37.091 157.876 37.043 157.428 37.043 C 156.852 37.043 156.404 37.203 156.084 37.523 C 155.732 37.843 155.556 38.227 155.556 38.675 C 155.556 39.027 155.62 39.331 155.748 39.587 C 155.908 39.843 156.18 40.083 156.564 40.307 C 156.948 40.563 157.524 40.835 158.292 41.123 C 159.348 41.571 160.084 42.019 160.5 42.467 C 160.884 42.947 161.076 43.539 161.076 44.243 C 161.076 44.787 160.948 45.299 160.692 45.779 C 160.404 46.259 159.988 46.659 159.444 46.979 C 158.868 47.299 158.18 47.459 157.38 47.459 Z M 168.971 31.955 L 168.971 3.635 L 170.411 3.635 L 170.411 31.955 L 168.971 31.955 Z M 171.851 31.955 L 171.851 3.635 L 173.291 3.635 L 173.291 31.955 L 171.851 31.955 Z M 174.731 31.955 L 174.731 3.635 L 179.051 3.635 L 179.051 31.955 L 174.731 31.955 Z M 180.491 31.955 L 180.491 3.635 L 184.811 3.635 L 184.811 31.955 L 180.491 31.955 Z M 189.131 31.955 L 189.131 3.635 L 190.571 3.635 L 190.571 31.955 L 189.131 31.955 Z M 179.723 37.235 L 176.603 37.235 L 176.603 36.131 L 184.283 36.131 L 184.283 37.235 L 181.019 37.235 L 181.019 47.267 L 179.723 47.267 L 179.723 37.235 Z M 192.033 31.955 L 192.033 3.635 L 196.353 3.635 L 196.353 31.955 L 192.033 31.955 Z M 197.793 31.955 L 197.793 3.635 L 199.233 3.635 L 199.233 31.955 L 197.793 31.955 Z M 200.673 31.955 L 200.673 3.635 L 204.993 3.635 L 204.993 31.955 L 200.673 31.955 Z M 206.433 31.955 L 206.433 3.635 L 207.873 3.635 L 207.873 31.955 L 206.433 31.955 Z M 212.193 31.955 L 212.193 3.635 L 213.633 3.635 L 213.633 31.955 L 212.193 31.955 Z M 203.553 47.459 C 202.273 47.459 201.297 46.963 200.625 45.971 C 199.921 44.979 199.569 43.571 199.569 41.747 C 199.569 39.987 199.921 38.595 200.625 37.571 C 201.329 36.579 202.305 36.083 203.553 36.083 C 204.801 36.083 205.777 36.579 206.481 37.571 C 207.185 38.595 207.537 39.987 207.537 41.747 C 207.537 43.571 207.185 44.979 206.481 45.971 C 205.809 46.963 204.833 47.459 203.553 47.459 Z M 203.553 46.355 C 204.417 46.355 205.073 45.971 205.521 45.203 C 206.001 44.403 206.241 43.251 206.241 41.747 C 206.241 40.339 206.001 39.219 205.521 38.387 C 205.041 37.587 204.385 37.187 203.553 37.187 C 202.721 37.187 202.065 37.587 201.585 38.387 C 201.105 39.219 200.865 40.339 200.865 41.747 C 200.865 43.251 201.089 44.403 201.537 45.203 C 202.017 45.971 202.689 46.355 203.553 46.355 Z M 215.096 31.955 L 215.096 3.635 L 219.416 3.635 L 219.416 31.955 L 215.096 31.955 Z M 220.856 31.955 L 220.856 3.635 L 225.176 3.635 L 225.176 31.955 L 220.856 31.955 Z M 226.616 31.955 L 226.616 3.635 L 228.056 3.635 L 228.056 31.955 L 226.616 31.955 Z M 232.376 31.955 L 232.376 3.635 L 233.816 3.635 L 233.816 31.955 L 232.376 31.955 Z M 235.256 31.955 L 235.256 3.635 L 236.696 3.635 L 236.696 31.955 L 235.256 31.955 Z M 227.24 47.459 C 226.408 47.459 225.672 47.251 225.032 46.835 C 224.36 46.419 223.832 45.795 223.448 44.963 C 223.064 44.099 222.872 43.027 222.872 41.747 C 222.872 40.403 223.08 39.299 223.496 38.435 C 223.912 37.603 224.44 36.995 225.08 36.611 C 225.72 36.259 226.408 36.083 227.144 36.083 C 227.944 36.083 228.632 36.275 229.208 36.659 C 229.784 37.043 230.216 37.571 230.504 38.243 L 229.448 38.771 L 229.304 38.819 L 229.256 38.723 L 229.256 38.579 C 229.256 38.451 229.176 38.275 229.016 38.051 C 228.76 37.699 228.472 37.443 228.152 37.283 C 227.832 37.123 227.496 37.043 227.144 37.043 C 226.184 37.043 225.432 37.459 224.888 38.291 C 224.376 39.091 224.12 40.227 224.12 41.699 C 224.12 42.595 224.248 43.411 224.504 44.147 C 224.792 44.851 225.16 45.395 225.608 45.779 C 226.088 46.163 226.616 46.355 227.192 46.355 C 227.64 46.355 228.056 46.243 228.44 46.019 C 228.856 45.763 229.192 45.427 229.448 45.011 L 230.36 45.635 C 229.976 46.243 229.544 46.691 229.064 46.979 C 228.552 47.299 227.944 47.459 227.24 47.459 Z M 238.158 31.955 L 238.158 3.635 L 242.478 3.635 L 242.478 31.955 L 238.158 31.955 Z M 243.918 31.955 L 243.918 3.635 L 245.358 3.635 L 245.358 31.955 L 243.918 31.955 Z M 246.798 31.955 L 246.798 3.635 L 248.238 3.635 L 248.238 31.955 L 246.798 31.955 Z M 249.678 31.955 L 249.678 3.635 L 251.118 3.635 L 251.118 31.955 L 249.678 31.955 Z M 255.438 31.955 L 255.438 3.635 L 259.758 3.635 L 259.758 31.955 L 255.438 31.955 Z M 248.19 41.699 L 247.278 42.659 L 247.278 47.267 L 245.982 47.267 L 245.982 36.131 L 247.47 36.131 L 247.47 36.275 C 247.406 36.339 247.358 36.419 247.326 36.515 C 247.294 36.579 247.278 36.723 247.278 36.947 L 247.278 41.267 L 251.934 36.083 C 252.222 36.115 252.526 36.131 252.846 36.131 L 253.326 36.131 L 249.102 40.931 L 253.614 47.267 L 252.03 47.315 L 248.19 41.699 Z" style="stroke-width: 1; fill: rgb(53, 128, 57);"/>
</svg>