<svg xmlns="http://www.w3.org/2000/svg" viewBox="0.15625 0.679998 252.2 43.82">
	<path d="M0.15625 29V0.679998H1.59625V29H0.15625ZM3.03625 29V0.679998H7.35625V29H3.03625ZM8.79625 
29V0.679998H13.1163V29H8.79625ZM14.5563 29V0.679998H15.9963V29H14.5563ZM20.3163 29V0.679998H21.7563V29H20.3163ZM8.26825 
33.176H11.8203C13.0043 33.176 13.8843 33.48 14.4603 34.088C15.0683 34.664 15.3723 35.416 15.3723 36.344C15.3723 37.24 
15.0843 37.976 14.5083 38.552C13.9323 39.128 13.0683 39.416 11.9163 39.416H9.56425V44.312H8.26825V33.176ZM11.7723 
38.312C12.5723 38.312 13.1483 38.136 13.5003 37.784C13.8843 37.464 14.0763 37 14.0763 36.392C14.0763 35.784 13.8843 
35.304 13.5003 34.952C13.1163 34.568 12.5563 34.376 11.8203 34.376H9.56425V38.312H11.7723ZM23.2188 
29V0.679998H27.5388V29H23.2188ZM28.9788 29V0.679998H30.4188V29H28.9788ZM31.8588 29V0.679998H33.2988V29H31.8588ZM37.6188 
29V0.679998H41.9388V29H37.6188ZM43.3788 29V0.679998H44.8188V29H43.3788ZM31.1868 33.176H32.6268V33.32C32.5628 33.384 
32.5148 33.464 32.4828 33.56C32.4828 33.624 32.4828 33.768 32.4828 33.992V37.928H36.8028V33.176H38.2908V33.32C38.2268 
33.384 38.1788 33.464 38.1468 33.56C38.1468 33.624 38.1468 33.768 38.1468 
33.992V44.312H36.8028V39.032H32.4828V44.312H31.1868V33.176ZM46.2812 29V0.679998H50.6013V29H46.2812ZM52.0413 
29V0.679998H53.4813V29H52.0413ZM54.9213 29V0.679998H56.3613V29H54.9213ZM60.6813 29V0.679998H62.1213V29H60.6813ZM63.5613 
29V0.679998H67.8813V29H63.5613ZM59.5773 41.048H55.9773L54.8733 44.312H53.6253L57.7053 32.984H57.8493L61.9773 
44.312H60.6813L59.5773 41.048ZM59.2413 40.088L57.8013 35.864L56.3133 40.088H59.2413ZM69.3438 
29V0.679998H73.6638V29H69.3438ZM75.1038 29V0.679998H76.5438V29H75.1038ZM77.9838 29V0.679998H79.4238V29H77.9838ZM80.8638 
29V0.679998H85.1838V29H80.8638ZM89.5038 29V0.679998H90.9438V29H89.5038ZM77.4078 33.176H80.6718C81.9518 33.176 82.8798 
33.464 83.4557 34.04C84.0638 34.584 84.3678 35.368 84.3678 36.392C84.3678 37.032 84.1598 37.64 83.7438 38.216C83.3278 
38.792 82.7838 39.176 82.1118 39.368L84.7038 44.312H83.3118L80.8158 39.416H78.6558V44.312H77.4078V33.176ZM80.8158 
38.312C81.5838 38.312 82.1598 38.136 82.5438 37.784C82.8958 37.464 83.0718 37 83.0718 36.392C83.0718 35.784 82.8958 
35.288 82.5438 34.904C82.1598 34.552 81.5838 34.376 80.8158 34.376H78.6558V38.312H80.8158ZM92.4062 
29V0.679998H96.7263V29H92.4062ZM98.1663 29V0.679998H102.486V29H98.1663ZM103.926 29V0.679998H105.366V29H103.926ZM106.806 
29V0.679998H108.246V29H106.806ZM112.566 29V0.679998H114.006V29H112.566ZM100.182 33.176H101.19L103.926 38.648L106.71 
33.176H107.67V44.312H106.47V35.912L104.07 40.424H103.59L101.334 35.96V44.312H100.182V33.176ZM115.469 
29V0.679998H119.789V29H115.469ZM121.229 29V0.679998H122.669V29H121.229ZM124.109 29V0.679998H125.549V29H124.109ZM129.869 
29V0.679998H131.309V29H129.869ZM132.749 29V0.679998H137.069V29H132.749ZM128.765 41.048H125.165L124.061 
44.312H122.813L126.893 32.984H127.037L131.165 44.312H129.869L128.765 41.048ZM128.429 40.088L126.989 35.864L125.501 
40.088H128.429ZM138.531 29V0.679998H139.971V29H138.531ZM141.411 29V0.679998H145.731V29H141.411ZM147.171 
29V0.679998H148.611V29H147.171ZM150.051 29V0.679998H154.371V29H150.051ZM158.691 29V0.679998H160.131V29H158.691ZM150.003 
44.504C148.563 44.504 147.395 44.024 146.499 43.064L147.171 41.96L147.219 41.816L147.363 41.864C147.363 41.896 147.379 
41.96 147.411 42.056C147.411 42.12 147.443 42.2 147.507 42.296C147.539 42.36 147.603 42.424 147.699 42.488C148.371 
43.064 149.203 43.352 150.195 43.352C150.835 43.352 151.379 43.176 151.827 42.824C152.275 42.44 152.499 41.992 152.499 
41.48C152.499 41.128 152.419 40.824 152.259 40.568C152.131 40.344 151.891 40.12 151.539 39.896C151.187 39.672 150.643 
39.4 149.907 39.08C148.819 38.664 148.035 38.184 147.555 37.64C147.107 37.096 146.883 36.488 146.883 35.816C146.883 
34.984 147.187 34.312 147.795 33.8C148.403 33.288 149.219 33.032 150.243 33.032C150.851 33.032 151.427 33.16 151.971 
33.416C152.483 33.672 152.947 34.008 153.363 34.424L152.547 35.528L152.451 35.432C152.451 35.4 152.435 35.352 152.403 
35.288C152.403 35.192 152.371 35.112 152.307 35.048C152.275 34.952 152.211 34.872 152.115 34.808C151.859 34.552 151.555 
34.36 151.203 34.232C150.883 34.136 150.499 34.088 150.051 34.088C149.475 34.088 149.027 34.248 148.707 34.568C148.355 
34.888 148.179 35.272 148.179 35.72C148.179 36.072 148.243 36.376 148.371 36.632C148.531 36.888 148.803 37.128 149.187 
37.352C149.571 37.608 150.147 37.88 150.915 38.168C151.971 38.616 152.707 39.064 153.123 39.512C153.507 39.992 153.699 
40.584 153.699 41.288C153.699 41.832 153.571 42.344 153.315 42.824C153.027 43.304 152.611 43.704 152.067 44.024C151.491 
44.344 150.803 44.504 150.003 44.504ZM161.594 29V0.679998H163.034V29H161.594ZM164.474 29V0.679998H165.914V29H164.474ZM167.354 
29V0.679998H171.674V29H167.354ZM173.114 29V0.679998H177.434V29H173.114ZM181.754 29V0.679998H183.194V29H181.754ZM172.346 
34.28H169.226V33.176H176.906V34.28H173.642V44.312H172.346V34.28ZM184.656 29V0.679998H188.976V29H184.656ZM190.416 
29V0.679998H191.856V29H190.416ZM193.296 29V0.679998H197.616V29H193.296ZM199.056 29V0.679998H200.496V29H199.056ZM204.816 
29V0.679998H206.256V29H204.816ZM196.176 44.504C194.896 44.504 193.92 44.008 193.248 43.016C192.544 42.024 192.192 40.616 
192.192 38.792C192.192 37.032 192.544 35.64 193.248 34.616C193.952 33.624 194.928 33.128 196.176 33.128C197.424 33.128 
198.4 33.624 199.104 34.616C199.808 35.64 200.16 37.032 200.16 38.792C200.16 40.616 199.808 42.024 199.104 43.016C198.432 
44.008 197.456 44.504 196.176 44.504ZM196.176 43.4C197.04 43.4 197.696 43.016 198.144 42.248C198.624 41.448 198.864 40.296 
198.864 38.792C198.864 37.384 198.624 36.264 198.144 35.432C197.664 34.632 197.008 34.232 196.176 34.232C195.344 34.232 194.688 
34.632 194.208 35.432C193.728 36.264 193.488 37.384 193.488 38.792C193.488 40.296 193.712 41.448 194.16 42.248C194.64 
43.016 195.312 43.4 196.176 43.4ZM207.719 29V0.679998H212.039V29H207.719ZM213.479 29V0.679998H217.799V29H213.479ZM219.239 
29V0.679998H220.679V29H219.239ZM224.999 29V0.679998H226.439V29H224.999ZM227.879 29V0.679998H229.319V29H227.879ZM219.863 
44.504C219.031 44.504 218.295 44.296 217.655 43.88C216.983 43.464 216.455 42.84 216.071 42.008C215.687 41.144 215.495 
40.072 215.495 38.792C215.495 37.448 215.703 36.344 216.119 35.48C216.535 34.648 217.063 34.04 217.703 33.656C218.343 
33.304 219.031 33.128 219.767 33.128C220.567 33.128 221.255 33.32 221.831 33.704C222.407 34.088 222.839 34.616 223.127 
35.288L222.071 35.816L221.927 35.864L221.879 35.768V35.624C221.879 35.496 221.799 35.32 221.639 35.096C221.383 34.744 
221.095 34.488 220.775 34.328C220.455 34.168 220.119 34.088 219.767 34.088C218.807 34.088 218.055 34.504 217.511 
35.336C216.999 36.136 216.743 37.272 216.743 38.744C216.743 39.64 216.871 40.456 217.127 41.192C217.415 41.896 217.783 
42.44 218.231 42.824C218.711 43.208 219.239 43.4 219.815 43.4C220.263 43.4 220.679 43.288 221.063 43.064C221.479 42.808 
221.815 42.472 222.071 42.056L222.983 42.68C222.599 43.288 222.167 43.736 221.687 44.024C221.175 44.344 220.567 44.504 
219.863 44.504ZM230.781 29V0.679998H235.101V29H230.781ZM236.541 29V0.679998H237.981V29H236.541ZM239.421 
29V0.679998H240.861V29H239.421ZM242.301 29V0.679998H243.741V29H242.301ZM248.061 29V0.679998H252.381V29H248.061ZM240.813 
38.744L239.901 39.704V44.312H238.605V33.176H240.093V33.32C240.029 33.384 239.981 33.464 239.949 33.56C239.917 33.624 
239.901 33.768 239.901 33.992V38.312L244.557 33.128C244.845 33.16 245.149 33.176 245.469 33.176H245.949L241.725 
37.976L246.237 44.312L244.653 44.36L240.813 38.744Z" fill="#FFFFFF"/>
</svg>